{"title":"The Impossible 2012 CAM READNFO XViD 26k","uid":7980801,"size":1458973350,"categoryP":"video","categoryS":"movies","magnet":"?xt=urn:btih:476d58ee1d60d7fbde1405827f2dd4d46c89ef5b&amp;dn=The+Impossible+2012+CAM+READNFO+XViD+26k&amp;tr=udp%3A%2F%2Ftracker.openbittorrent.com%3A80&amp;tr=udp%3A%2F%2Fopen.demonii.com%3A1337&amp;tr=udp%3A%2F%2Ftracker.coppersurfer.tk%3A6969&amp;tr=udp%3A%2F%2Fexodus.desync.com%3A6969","seeders":1,"leechers":0,"uploader":"stumpie1971","files":-1,"time":1357168051,"description":"The.Impossible.2012.CAM.READNFO.XViD-26k\n\n\nClick Here For I.M.D.B\n\n\n\n\n\n\nAn account of a family caught, with tens of thousands of strangers, in the mayhem of one of the worst natural catastrophes of our time\n\n\n\n\nSources - VIDEO: edmond dantes ..... thanks .... :P\nAUDIO: edmond dantes ..... thanks .... :P\n\n\n\n\n\n\n\nVideo\nID : 0\nFormat : MPEG-4 Visual\nFormat profile : Advanced Simple@L5\nFormat settings, BVOP : 2\nFormat settings, QPel : Yes\nFormat settings, GMC : No warppoints\nFormat settings, Matrix : Default (H.263)\nMuxing mode : Packed bitstream\nCodec ID : XVID\nCodec ID/Hint : XviD\nDuration : 1h 25mn\nBit rate : 2 091 Kbps\nWidth : 720 pixels\nHeight : 256 pixels\nDisplay aspect ratio : 2.813\nFrame rate : 25.000 fps\nColor space : YUV\nChroma subsampling : 4:2:0\nBit depth : 8 bits\nScan type : Progressive\nCompression mode : Lossy\nBits/(Pixel*Frame) : 0.454\nStream size : 1.25 GiB (94%)\nWriting library : XviD 64\n\n\nAudio\nID : 1\nFormat : MPEG Audio\nFormat version : Version 1\nFormat profile : Layer 3\nCodec ID : 55\nCodec ID/Hint : MP3\nDuration : 1h 25mn\nBit rate mode : Constant\nBit rate : 128 Kbps\nChannel(s) : 2 channels\nSampling rate : 44.1 KHz\nCompression mode : Lossy\nDelay relative to video : 9ms\nStream size : 78.6 MiB (6%)\nAlignment : Split accross interleaves\nInterleave, duration : 16345 ms (408.63 video frames)\n","torrent":{"xt":"urn:btih:476d58ee1d60d7fbde1405827f2dd4d46c89ef5b","amp;dn":"The+Impossible+2012+CAM+READNFO+XViD+26k","amp;tr":["udp%3A%2F%2Ftracker.openbittorrent.com%3A80","udp%3A%2F%2Fopen.demonii.com%3A1337","udp%3A%2F%2Ftracker.coppersurfer.tk%3A6969","udp%3A%2F%2Fexodus.desync.com%3A6969"],"infoHash":"476d58ee1d60d7fbde1405827f2dd4d46c89ef5b","infoHashBuffer":{"type":"Buffer","data":[71,109,88,238,29,96,215,251,222,20,5,130,127,45,212,212,108,137,239,91]},"announce":[],"urlList":[]}}